<svg xmlns="http://www.w3.org/2000/svg" width="79.9" height="78.2" viewBox="0 0 799 782">
  <defs>
    <style>
      .cls-1 {
        fill: #fff;
        fill-rule: evenodd;
      }
    </style>
  </defs>
  <path class="cls-1" d="M780.275,64.116a20.793,20.793,0,0,0-20.726,20.738V635.277A105.474,105.474,0,0,1,654.2,740.7H147.805A105.474,105.474,0,0,1,42.45,635.277V41.477H649.187V575.483a20.726,20.726,0,1,0,41.451,0V20.739A20.793,20.793,0,0,0,669.912,0H21.725A20.793,20.793,0,0,0,1,20.739V635.1C1,716.156,66.8,782,147.805,782H654.023c81,0,146.8-65.844,146.8-146.9V84.854A20.535,20.535,0,0,0,780.275,64.116ZM569.739,161.067a20.739,20.739,0,0,0,0-41.477H117.925a20.739,20.739,0,0,0,0,41.477H569.739Zm0,381.234H117.925a20.739,20.739,0,0,0,0,41.477H569.567A20.739,20.739,0,0,0,569.739,542.3Zm0,106.283H189.6a20.739,20.739,0,0,0,0,41.477H569.739A20.739,20.739,0,0,0,569.739,648.584ZM90.292,233.477V457.794a20.793,20.793,0,0,0,20.725,20.738H336.06a20.793,20.793,0,0,0,20.726-20.738V233.477a20.794,20.794,0,0,0-20.726-20.739H111.017A20.793,20.793,0,0,0,90.292,233.477Zm41.45,20.738H315.335v182.84H131.742V254.215Zm449.051-20.738H431.743a20.738,20.738,0,0,0,0,41.476h149.05A20.738,20.738,0,0,0,580.793,233.477Zm0,93.667H431.743a20.738,20.738,0,0,0,0,41.476h149.05A20.738,20.738,0,0,0,580.793,327.144Zm20.725,120.281a20.792,20.792,0,0,0-20.725-20.738H431.743a20.738,20.738,0,0,0,0,41.476h149.05A20.681,20.681,0,0,0,601.518,447.425Z" transform="translate(-1)"/>
</svg>
